<?xml version="1.0" encoding="UTF-8"?><svg id="Layer_2" xmlns="http://www.w3.org/2000/svg" viewBox="0 0 166.88 135.83"><g id="Layer_1-2"><path d="M49.51,77.88c-5.02-7.53-.44-9.86,3.21-15.96.12-.19.45-.24,0-.49-.76-.43-4.11-1.1-5.15-1.28-5.21-.92-10.72-.93-16.02-.82-1.59.03-5.01,1.18-5.26-1.41-.13-1.44,2.43-4.53,3.41-5.64,11.12-12.65,28.73-19.8,45.58-16.99C94.25,17.52,116.88,5.62,142.72,1.51c5.38-.85,14.44-2,19.7-1.29,6.33.86,4.36,10.74,3.44,15.02-5.34,24.93-23.24,48.64-43.56,63.42.27,16.54-12.48,34.82-28.02,40.38-2.11.76-4.53,1.84-5.2-1.23,1.3-6.96,2.45-14.09,1.25-21.15-4.84,1.56-10.55,6.32-15.82,4.82-1.19-.34-3.19-1.38-4.21-2.1-.28-.2-2-1.53-2.23-1.73-.71-.62-1.79-1.95-2.47-2.72-.37-.42-.32-1-1.24-1.48-.81-.42-2.35.52-3.55.48-3.38-.12-6.7-3.24-6.28-6.72.08-.64.93-2.6.9-2.75-.06-.31-.7-.6-.96-.9-.93-1.08-2.15-2-2.97-2.97-.47-.55-1.54-2.07-1.98-2.72ZM163.8,4.16c-.21-.43-1.11-1.14-1.62-1.22-3.27-.53-10.07.12-13.56.51-3.78.42-7.54,1.29-11.28,1.95.26,3,1.75,6.13,3.35,8.65.18.28.54.4.6.5,1.25,1.85,1.95,2.79,3.46,4.45,2.05,2.26,4,4.22,6.5,5.99,1.01.72,6.7,4.39,7.58,3.63.68-2.69,1.82-5.24,2.62-7.9,1.19-3.95,3.55-12.55,2.35-16.33-.03-.08.03-.19,0-.25ZM135.6,8.86c-.3-.98-.78-1.9-.74-2.97-24.09,5.48-46.2,18.92-62.96,36.86-.55.59-3.98,4.32-4.04,4.62-.1.49,1.61,3.13,2.19,3.55.12.79,2.8,4.46,3.47,5.31,1.72,2.18,3.86,4.29,5.8,6.27,4.86-4.5,13.56-3.95,16.28,2.57,1.75,4.2.04,7.57-2.77,10.67,1.63,1.65,3.38,3.15,5.18,4.61,1.35,1.1,2.69,2.18,4.13,3.17.68.47,3.54,2.54,4.04,2.42,17.94-9.93,33.45-24.1,44.38-41.48.95-1.52,7.36-12.55,6.81-13.32-1.9-.64-3.7-1.48-5.42-2.49-7.13-4.21-13.91-11.84-16.33-19.79ZM33.68,52.15c-.87.84-3.58,3.37-3.96,4.33-.21.52.43.36.74.37.66,0,1.21-.24,1.85-.26,7.65-.27,15.27.03,22.48,2.75l5.11-7.07c3.48-3.64,6.58-7.82,9.9-11.5.47-.52,1.19-1.17,1.73-1.73.34-.35.93-.66,1.24-1.11-.26-.19-.82-.3-1.14-.34-14.44-1.63-27.85,4.78-37.94,14.57ZM64.1,51.66c-.41.5-.83.97-1.24,1.48-.7.88-3.12,3.61-3.22,4.45-.62.35-1.75,1.82-1.86,2.45-.19,1.02,4.27,7.34,5.2,8.43,1.16,1.37,2.72,2.42,3.7,3.97.14.13.31.24.51.24.68,0,8.7-8.03,10.25-8.82-1.5-1.93-3.37-3.53-4.93-5.42s-3.11-4.03-4.46-6.05c-.61-.91-1.31-2.2-1.73-3.22-.99.58-1.52,1.63-2.22,2.47ZM62.62,80.6c-2.16,2.1-6.18,4.8-5.19,8.16,1.39,4.75,7.45,1.27,10.15-.12,4.6-2.36,9.68-5.43,14.07-8.19,4.82-3.03,16.92-9.63,10.16-16.43-.31-.31-.63-.51-.99-.74-.42-.27-1-.78-1.48-.88-.37-.08-.93.18-.99.14-.02-.01.1-.43-.16-.5-4.18-1.12-10.91,5.19-13.94,7.79-3.93,3.37-7.91,7.15-11.62,10.76ZM52.97,66.75c-2.48,2.72-3.78,5.19-1.73,8.66.6,1.02,5.22,7.05,6.03,6.91l8.06-7.81c-1.43-1.84-3.19-3.36-4.68-5.17s-2.76-3.65-3.96-5.56c-.26-.4-.36-1.14-.87-1.48l-2.84,4.45ZM96.51,82.58s.05-.31-.18-.5c-1.91-1.54-3.67-3.11-5.39-4.89l-12,7.61c-.07.34-.05.32.16.51.48.45,1.29.97,1.82,1.46,2.76,2.57,5.87,5.03,9.18,6.81l13.33-6.07c.27-.36-1.09-1.21-1.41-1.43-1.64-1.16-4.05-2.37-5.52-3.51ZM93.29,109.05c-.13,1.52-.24,3.48-.49,4.95-.08.46-.98,2.67-.74,2.97,11.42-4.31,20.82-13.81,25.1-25.24,1.1-2.94,2.22-7.12,2.35-10.27.02-.37.17-.71-.37-.61-7.95,6.04-16.91,10.5-25.98,14.59-.37.61.34,3.37.38,4.32.15,3.08,0,6.25-.26,9.29ZM70.78,90c-.72.4-1.79.69-2.72,1.24-.34.2-1.41.43-1.23.86.08.2,2.12,2.4,2.47,2.73.73.7,1.66,1.26,2.48,1.85,1.13.82,1.89,1.77,3.46,2.11,3.87.84,8.53-2.63,12.12-3.84.1-.12-2.14-1.74-2.39-1.93-1.17-.87-2.72-1.68-3.79-2.52-1.56-1.22-2.98-2.69-4.33-4.14-1.66.86-3.27,1.8-4.9,2.7-.48.26-.93.81-1.16.94Z" fill="#212c35"/><path d="M51.49,80.6c-1.02-.11-1.98.09-2.97.25-.16.02-.34-.03-.49,0l-.25.25c-1.79.3-3.43.59-5.19.99-.54.12-1.25.13-1.73.25-.36.09-.47.24-.49.25-2.91.77-4.94,1.42-7.67,2.72-.75.36-1.23.54-1.98.99-.58.35-1.37.62-1.73,1.23,1.29,0,4.52-.15,5.44.87.57.63-.25,1.92-.74,2.35-1.17,1-3.1,2.12-4.45,3.22-1.65,1.34-4.52,3.31-5.69,4.95-2.01,1.54-3.26,3.77-4.45,5.93,2.03.98,6.19-.63,7.91.13,1.52.67.36,3.06-.24,4.08-.41.69-1.22,1.74-1.73,2.47-2.65,3.83-9.02,11.42-9.15,16.08,0,.3-.06.77.11,1,.51.7,3.52-.5,4.34-.75,3.36-1.02,6.62-2.5,9.63-4.35,1.97-1.21,4.99-3.06,5.71-5.3.64-.19.97-.14,1.48-.25,1.31,1.37-.65,2.97-.37,4.45,1.9-1.47,3.77-2.99,5.57-4.57,1.08-.95,3.16-3.62,4.45-3.84,2.21-.37,2.35,2.36,2.23,3.96,0,.02-.23.06-.25.25-.06.73-.23,1.58-.25,2.23,0,.16,0,.33,0,.49h.37c.09-.03.08-.21.12-.25.18-.13.32-.37.49-.49.09-.07.4-.05.62-.24,1.25-1.03,3.12-2.89,3.59-4.46,1.91-1.11,3.24-6.57,5.63-6.89.36-.05.84.21,1.05.46.6.73.93,2.76,1.24,3.71,3.53-3.76,4.67-9.14,5.89-14.02.1-.41-.02-.91.54-1.07.23.2,1.94,1.53,2.23,1.73-.93,4.45-2.21,8.91-4.69,12.75-.8,1.24-4.18,6.09-5.88,4.01l-.8-3.64c-1.29,3.65-7.68,11.95-11.76,11.84-2.73-.08-1.18-4.24-1.04-5.97.02-.29.49-.49-.19-.43-1.62,1.59-3.19,3.27-4.96,4.69-1.48,1.19-4.97,3.99-6.87,3.42-1.08-.32-.32-1.96-1.04-1.68-.54.21-2.11,1.62-2.87,2.08-3.19,1.93-11.24,5.92-14.83,4.98-3.87-1.02-1.86-6.48-.78-8.96,2.32-5.3,6.19-10.12,9.69-14.68h-5.57c-1.08,0-2.54-1.52-2.58-2.62-.06-1.51,2.77-5.55,3.82-6.78,2.71-3.19,6.43-5.8,9.77-8.29-9.16-.1-3.69-4.5.58-6.84,3.79-2.08,8.1-3.27,12.28-4.29l6.93-1.11c.43.65,1.51,2.17,1.98,2.72Z" fill="#cd7b2b"/><path d="M7.89,103.16c2.04-.09,2.23,1.98,2.04,3.54s-1.86,2.54-3.23,2.96c-7.29,2.22-3.43-6.29,1.19-6.5ZM7.95,105.09c-.56-.56-3.41,1.7-2.97,2.72,1.61-.3,3.27-.71,2.97-2.72Z" fill="#cd7b2b"/><path d="M3.68,122.46c4.05-.84,3.71,4.48-.17,5.28-6.22,1.27-2.89-4.64.17-5.28ZM4.49,124.14c-.69-.49-2.54,1.47-2.22,1.73,1.16.12,2.43-.33,2.22-1.73Z" fill="#cd7b2b"/><path d="M31.26,135.46c-1.83-1.82,3.11-6.35,5.15-4.04,2.14,2.44-3.69,5.49-5.15,4.04ZM34.67,132.3c-.26-.3-2.11,1.14-1.73,1.48.98-.11,2.05-.32,1.73-1.48Z" fill="#cd7b2b"/><path d="M9.61,117c1.25-.35,1.81,1.54.64,1.9-1.72.52-1.65-1.61-.64-1.9Z" fill="#f3bc3c"/><path d="M135.6,8.86c2.42,7.95,9.2,15.58,16.33,19.79.22,2.05-1.22,3.39-1.73,5.19-.1.35-.25.54-.25.99l-1.59,2c-10.4,16.22-25.76,32.85-43.59,41.01-2.18,1-4.49,1.81-6.77,2.5-1.8-1.46-3.55-2.96-5.18-4.61,2.82-3.11,4.53-6.47,2.77-10.67-2.72-6.52-11.42-7.07-16.28-2.57-1.95-1.98-4.09-4.09-5.8-6.27-.67-.85-3.35-4.52-3.47-5.31-.08-.55-.06-1.12.23-1.62,1.07-1.83,6.13-6.54,7.93-8.15,14.07-12.61,31.25-23.71,49.1-30.06,2.6-.93,5.57-1.92,8.29-2.22ZM130.89,11.34c-.84-.09-1.38.07-1.23.99.84.09,1.38-.07,1.23-.99ZM135.17,22.9c.93,1.01,3.4.14,3.05-1.18-.59-2.2-4.43-.31-3.05,1.18ZM115.26,21.79c-12.65,1.43-19.58,15.95-13.59,27.06,7.78,14.44,29.73,13,34.5-2.94,4.02-13.46-7.28-25.66-20.9-24.12ZM144.19,28.2c-1.79.28-1.42,3.01.17,2.93,1.92-.1,1.77-3.23-.17-2.93ZM110.36,67.24c.56.57,1.56-1.02.61-1.23-.61-.14-.77,1.07-.61,1.23ZM110.61,70.21c-.52-.53-1.76.7-1.23,1.23s1.76-.7,1.23-1.23Z" fill="#fdf1e3"/><path d="M151.92,28.65c1.72,1.02,3.52,1.85,5.42,2.49.55.77-5.85,11.8-6.81,13.32-10.94,17.38-26.44,31.55-44.38,41.48-.5.12-3.36-1.95-4.04-2.42-1.43-.99-2.78-2.07-4.13-3.17,2.28-.7,4.6-1.51,6.77-2.5,17.83-8.17,33.19-24.79,43.59-41.01l1.59-2c.02,2.22,2.82.5,2.05-1.17-.66-1.43-1.06.05-1.8.18.51-1.81,1.96-3.15,1.73-5.19Z" fill="#e4d3bf"/><path d="M93.29,109.05c.25-3.04.41-6.21.26-9.29-.05-.95-.76-3.71-.38-4.32,9.07-4.09,18.03-8.55,25.98-14.59.53-.1.38.24.37.61-.14,3.15-1.25,7.33-2.35,10.27-4.28,11.43-13.68,20.92-25.1,25.24-.24-.3.66-2.51.74-2.97,1.99-.21,2.56-2.42,3.97-3.33,3.93-2.56,6.49-3.8,9.76-7.55,1.93-2.22,6.29-8.77,6.79-11.52.24-1.32-.79-.12-1.14.09-1.41.88-3.06,1.89-4.53,2.65-1.02.53-6.49,2.66-6.68,3.21-.21.43.5.34.51.51,0,.06-.22,1.06-.26,1.1-.09.09-1.23-.71-2.23.36-.49.53-2.48,4.32-2.93,5.23-.69,1.41-1.22,2.92-1.75,4.4l-1.01-.1Z" fill="#b43426"/><path d="M70.04,50.91c-.57-.42-2.28-3.06-2.19-3.55.06-.3,3.49-4.03,4.04-4.62,16.76-17.93,38.87-31.38,62.96-36.86-.04,1.06.45,1.99.74,2.97-2.73.3-5.69,1.3-8.29,2.22-17.86,6.35-35.03,17.44-49.1,30.06-1.8,1.61-6.86,6.32-7.93,8.15-.29.5-.32,1.08-.23,1.62Z" fill="#fff7f1"/><path d="M90.82,63.28c.36.23.68.43.99.74-.2,1.99-1.63,5.11-3.33,6.2-.39.25-.87.15-1.07.29-.16.11-1.68,2.13-2.55,2.77-4.39,3.28-9.91,6.59-14.66,9.34-.62.36-1.56,1.34-2.16,1.57-.52.19-1.15-.21-1.22-.13-.05.05.14.49-.16.76-.53.48-3.52,1.87-4.37,2.26-.45.21-.97.11-1.16.19.29-1.09-1.03-.86-1.21-1.39-.54-1.53,2.47-3.08,3.19-4.3,8.22-4.91,15.74-15.8,25.23-17.81.53-.11.91-.4,1.39-.49.36-.07.9.34,1.09,0Z" fill="#fec83f"/><path d="M69.79,40.77c-3.31,3.68-6.42,7.86-9.9,11.5l-5.11,7.07c-7.22-2.72-14.83-3.02-22.48-2.75-.63.02-1.19.26-1.85.26.09-1.12,1.32-1.1,2.05-1.49,7.08-3.74,14.91-3.42,22.21-5.55.34-.1,1.69-1.06,1.84-1.37.56-1.16-.55-.88-.37-1.35.37-.93,1.27-.27,1.98-.47.61-.18,2.22-1.94,3.04-2.43,1.56-.94,5.43-2.41,7.28-3.11.42-.16.84-.31,1.3-.3Z" fill="#b43426"/><path d="M163.8,4.41c1.2,3.78-1.16,12.37-2.35,16.33-.8,2.66-1.93,5.2-2.62,7.9-.88.75-6.57-2.92-7.58-3.63-2.5-1.78-4.45-3.74-6.5-5.99,1.13-.49,2.29.05,3.58,0,2.43-.09,3.3-.83,4.82-2.6.3-.7-1.58,0-1.48-.98.48-.76,1.11-.12,1.63-.15,1.22-.05,3.65-4.2,4.45-5.16.66-.78,1.51-1.75,2.2-2.5,1.05-1.13,2.41-2.74,3.84-3.21Z" fill="#b43426"/><path d="M59.65,57.59c-.04.32.08,2.6.74,2.23-.23,1.38-.47,3.82,1.48,3.96.2-.63-.99-3.17-.73-3.45.04-.04.62,0,1-.37.95-.92,2.65-3.9,3.7-5.21.67-.83,1.39-1.68,2.22-2.36,1.35,2.02,2.91,4.17,4.46,6.05s3.43,3.49,4.93,5.42c-1.55.79-9.58,8.81-10.25,8.82-.2,0-.37-.11-.51-.24-.98-1.55-2.54-2.61-3.7-3.97-.93-1.09-5.39-7.41-5.2-8.43.12-.63,1.25-2.1,1.86-2.45Z" fill="#fdf1e3"/><path d="M71.53,39.04c-.54.56-1.26,1.21-1.73,1.73-.46,0-.88.14-1.3.3-1.85.7-5.72,2.17-7.28,3.11-.81.49-2.43,2.25-3.04,2.43-.71.21-1.61-.46-1.98.47-.19.48.93.19.37,1.35-.15.31-1.5,1.27-1.84,1.37-7.3,2.13-15.13,1.81-22.21,5.55-.73.39-1.96.37-2.05,1.49-.31,0-.95.15-.74-.37.38-.96,3.09-3.49,3.96-4.33.18.19.13.94.61.74.37-.15,2.42-2.01,3.01-2.43,11.16-7.88,19.39-10.22,32.89-11.64.41-.04,1.07-.2,1.33.22ZM51.91,47.5c-.26.08-.74.49-.67.81,2.18,2.02,2.83-1.46.67-.81Z" fill="#e04d2a"/><path d="M163.8,4.16c.03.06-.03.17,0,.25-1.43.48-2.79,2.09-3.84,3.21-.69.75-1.54,1.71-2.2,2.5-.81.96-3.23,5.1-4.45,5.16-.51.02-1.14-.62-1.63.15-.1.98,1.78.28,1.48.98-1.53,1.77-2.4,2.5-4.82,2.6-1.3.05-2.45-.48-3.58,0-1.51-1.67-2.21-2.61-3.46-4.45,1.97-.75-1.28-5.06-.09-5.96.62-.47,3.79-1.39,4.74-1.64,4.59-1.21,11.61-2.66,16.3-3.02.58-.04,1.03.05,1.57.23ZM148.95,14.06c-.67-.44-1.48.88-.75,1.37,1.36.92,1.03-1.18.75-1.37Z" fill="#e04d2a"/><path d="M57.43,88.76c1.54.22,2.56-.99,3.71-1.48.19-.08.71.01,1.16-.19.85-.39,3.85-1.78,4.37-2.26.3-.27.11-.71.16-.76.07-.08.7.32,1.22.13.61-.23,1.54-1.21,2.16-1.57,4.75-2.75,10.27-6.05,14.66-9.34.86-.65,2.39-2.67,2.55-2.77.2-.13.67-.03,1.07-.29,1.7-1.09,3.13-4.21,3.33-6.2,6.75,6.8-5.34,13.4-10.16,16.43-4.39,2.76-9.47,5.83-14.07,8.19-2.7,1.38-8.76,4.87-10.15.12Z" fill="#e7a62b"/><path d="M93.29,109.05l1.01.1c.53-1.47,1.06-2.99,1.75-4.4.45-.91,2.43-4.7,2.93-5.23,1-1.07,2.14-.28,2.23-.36.04-.04.27-1.04.26-1.1-.01-.17-.72-.07-.51-.51.19-.56,5.66-2.69,6.68-3.21,1.47-.76,3.11-1.77,4.53-2.65.35-.22,1.38-1.41,1.14-.09-.49,2.75-4.85,9.3-6.79,11.52-3.27,3.75-5.83,5-9.76,7.55-1.4.91-1.98,3.12-3.97,3.33.25-1.47.37-3.42.49-4.95ZM100.96,102.61c.06-1.56-1.52-1.22-1.23.25l1.23-.25Z" fill="#e04d2a"/><path d="M96.51,82.58c1.47,1.14,3.88,2.35,5.52,3.51.31.22,1.67,1.07,1.41,1.43l-13.33,6.07c-3.31-1.78-6.42-4.25-9.18-6.81,1.15-.49,1.95.07,2.98-.85.36-.32,1.23-2.02,1.97-1.37.58.51-1.57,1.9-1.22,2.46.61.97,4.86-.59,5.77-1.01.97-.45,1.72-1.1,2.63-1.58,1.15-.61,2.61-.86,3.47-1.85Z" fill="#e4d3bf"/><path d="M51.24,75.4l1.98-.25c.77.93,2.88,3.09,3.71,1.24.72.3,2.34.14,1.69-.95-.08-.13-2.24-.89-2.44-1.64l-2.47-3.35c0-.11-.25-.37-.2-.8.02-.13.65-2.11.71-2.22.16-.31.54-.33.69-.6.57-1.03,1.18-2.05,1.77-3.06,1.21,1.91,2.53,3.81,3.96,5.56s3.24,3.33,4.68,5.17l-8.06,7.81c-.81.14-5.42-5.89-6.03-6.91Z" fill="#3e6882"/><path d="M80.93,86.78c-.53-.49-1.35-1.02-1.82-1.46-.21-.2-.23-.17-.16-.51l12-7.61c1.71,1.78,3.47,3.35,5.39,4.89.23.18.16.48.18.5-.86.99-2.32,1.25-3.47,1.85-.91.48-1.66,1.13-2.63,1.58-.9.42-5.16,1.98-5.77,1.01-.35-.55,1.8-1.95,1.22-2.46-.73-.65-1.61,1.05-1.97,1.37-1.03.92-1.83.37-2.98.85Z" fill="#fdf1e3"/><path d="M54.46,83.57c.25.29.89.58.96.9.03.16-.82,2.11-.9,2.75-.42,3.48,2.91,6.6,6.28,6.72,1.2.04,2.74-.9,3.55-.48-.71,3.12-3.48,5.01-5.94,6.68,1.38-4.35-2.09-3.91-5.19-3.71-.76-3.66-3.49-6.4-3.47-10.39,1.28-.72,2.65-1.59,3.96-2.23.24-.12.47-.22.74-.25Z" fill="#ead5b8"/><path d="M141.29,14.55c-.07-.1-.43-.22-.6-.5-1.6-2.52-3.09-5.65-3.35-8.65,3.74-.66,7.5-1.53,11.28-1.95,3.49-.39,10.29-1.04,13.56-.51.51.08,1.42.79,1.62,1.22-.53-.18-.99-.27-1.57-.23-4.68.36-11.7,1.81-16.3,3.02-.95.25-4.12,1.16-4.74,1.64-1.18.91,2.07,5.21.09,5.96Z" fill="#f18668"/><path d="M33.68,52.15c10.1-9.78,23.5-16.2,37.94-14.57.32.04.89.15,1.14.34-.31.46-.9.76-1.24,1.11-.25-.42-.92-.26-1.33-.22-13.51,1.42-21.73,3.76-32.89,11.64-.6.42-2.65,2.28-3.01,2.43-.49.2-.43-.55-.61-.74Z" fill="#f18668"/><path d="M81.17,90.49c1.07.84,2.62,1.65,3.79,2.52.25.19,2.49,1.81,2.39,1.93-3.59,1.21-8.25,4.68-12.12,3.84-1.57-.34-2.33-1.29-3.46-2.11l1.24-1.73c.56.28,2.46.76,2.97.25,2.78,1.19,3.08.1.74-1.48-.13-.64.3-.52.69-.66,1.31-.49,3.28-1.04,3.77-2.55Z" fill="#33566e"/><path d="M62.62,80.6c3.71-3.61,7.7-7.39,11.62-10.76,3.03-2.61,9.76-8.91,13.94-7.79.26.07.14.48.16.5v1.24c-9.49,2.01-17.01,12.9-25.23,17.81.1-.51-.04-.77-.49-.99Z" fill="#f8e4a2"/><path d="M65.59,94.95c-.61-.04-.63.38-.87.74-3.33,4.91-5.76,6.8-11.25,8.91-.77.3-1.48.7-2.23.99-2.93,1.13-5.37,2.29-8.6,2.65-2.04.23-4.11-.21-5.92-.12-.63.03-1,1.03-1.74-.49s.14-3.59,1.43-4.52c1.78-1.29.3,1.97.25,2.37-.28,2.22,1.64,1.96,3.3,1.8,4.99-.47,14.45-4.42,18.46-7.14,2.46-1.67,5.23-3.56,5.94-6.68.92.48.87,1.07,1.24,1.48Z" fill="#cd7b2b"/><path d="M65.59,94.95c.69.78,1.77,2.1,2.47,2.72-.56.16-.44.66-.54,1.07-1.22,4.88-2.36,10.26-5.89,14.02-.31-.95-.64-2.98-1.24-3.71.43-1.17,1.09.33,1.7-.03.52-.3,2.56-6.62,2.68-7.58.09-.67.29-1.56-.31-2.04-3.06,2.19-7.35,5.58-11,6.43v-1.24c5.49-2.11,7.92-4,11.25-8.91.24-.36.26-.78.87-.74Z" fill="#e7a62b"/><path d="M81.17,90.49c-.49,1.51-2.45,2.07-3.77,2.55-.39.14-.81.02-.69.66-.74-.5-2.37-1.47-3.18-1.89-.44-.23-.73-.45-1.27-.33-.33-.38-1.07-.87-1.48-1.24v-.25c.24-.13.69-.68,1.16-.94,1.63-.9,3.24-1.85,4.9-2.7,1.35,1.44,2.76,2.92,4.33,4.14Z" fill="#3e6882"/><path d="M68.06,52.4c-.83.68-1.55,1.53-2.22,2.36-1.06,1.3-2.75,4.28-3.7,5.21-.38.36-.96.33-1,.37-.26.28.93,2.82.73,3.45-1.96-.14-1.71-2.58-1.48-3.96.39-2.33,1.91-3.83,3.22-5.69.4-.57,1.85-1.41.5-2.14v-.33c.7-.84,1.23-1.89,2.22-2.47.43,1.02,1.13,2.31,1.73,3.22Z" fill="#fff7f1"/><path d="M56.68,63.78c-.59,1.02-1.2,2.03-1.77,3.06-.15.27-.53.29-.69.6-.05.11-.69,2.09-.71,2.22-.05.43.2.69.2.8,0,.16-.01.33,0,.49,0,.03-.04.03,0,.25.06.3-.06.68.06,1.05.31.96,2.28,3.78,3.16,4.15-.83,1.85-2.94-.31-3.71-1.24-.09-.1-.7-.89-.73-.94-1.6-2.86.01-4.66.48-7.47l2.84-4.45c.51.34.61,1.08.87,1.48Z" fill="#6a98b1"/><path d="M51.49,80.6c.82.96,2.04,1.89,2.97,2.97-.27.02-.5.13-.74.25-.25-.48-.86-.18-1.24-.13-2.95.42-5.01,1.71-7.67,2.85.38-.51.79-1.61,1.23-2.11.92-1.03,2.7-1.64,2.48-3.58.99-.16,1.95-.35,2.97-.25Z" fill="#e7a62b"/><path d="M62.62,80.6c.45.22.6.48.49.99-.73,1.21-3.74,2.77-3.19,4.3.19.53,1.5.3,1.21,1.39-1.15.49-2.17,1.7-3.71,1.48-.99-3.36,3.03-6.06,5.19-8.16Z" fill="#f9d056"/><path d="M68.06,91.24l1.8,1.55c.33.27.91.1,1.17.19.81.28,1.15,1.57,1.98,1.98l-1.24,1.73c-.82-.59-1.74-1.15-2.48-1.85-.35-.33-2.38-2.52-2.47-2.73-.18-.43.9-.66,1.23-.86Z" fill="#3e6882"/><path d="M52.97,66.75c-.47,2.81-2.08,4.61-.48,7.47.03.05.65.84.73.94l-1.98.25c-2.05-3.47-.75-5.94,1.73-8.66Z" fill="#447590"/><path d="M63.61,54.13c-1.31,1.85-2.83,3.36-3.22,5.69-.66.37-.78-1.91-.74-2.23.1-.84,2.52-3.57,3.22-4.45.02.49.31.8.74.99Z" fill="#e4d3bf"/><path d="M70.78,90v.25l.25,2.72c-.26-.09-.84.08-1.17-.19l-1.8-1.55c.93-.55,2-.83,2.72-1.24Z" fill="#447590"/><path d="M64.1,51.66v.33c1.36.73-.09,1.57-.49,2.14-.43-.19-.73-.5-.74-.99.41-.51.82-.99,1.24-1.48Z" fill="#fdf1e3"/><path d="M90.82,63.28c-.18.34-.72-.07-1.09,0-.48.09-.86.38-1.39.49v-1.24c.07.04.63-.22.99-.14.49.1,1.07.61,1.48.88Z" fill="#f9d056"/><path d="M48.52,80.85c.22,1.95-1.56,2.56-2.48,3.58-.44.5-.85,1.6-1.23,2.11-1.18,1.58-3.46,3.08-4.95,4.7-.75.27-.33-.7-.63-.76-.95-.2-1.07.1-1.6.51-.68.53-.85.84-1.2,1.64-.88,2.01-1.31,3.83-1.27,6.03,0,.25-.02.5,0,.74.05.56.09.54.25.99.04.12-.03.34,0,.49l.49-.25c0,.1.27.49.25.85-.04.7-.72,1.8.24,1.62-1.29.93-2.17,2.99-1.43,4.52s1.11.52,1.74.49c1.82-.09,3.89.35,5.92.12,3.23-.37,5.68-1.52,8.6-2.65.48.96,1.55.41,2.23.25,3.66-.85,7.94-4.24,11-6.43.6.48.4,1.37.31,2.04-.12.95-2.17,7.28-2.68,7.58-.61.36-1.27-1.14-1.7.03-.21-.25-.69-.51-1.05-.46-2.39.32-3.72,5.78-5.63,6.89-.38.22-1.19.36-1.81.79-.76.52-1.23,1.38-2.15,1.69-.02-.74-.31-2.73-.52-3.56-.33-1.32-.8-1.94-2.27-1.13-.26.14-.16.48-.18.49-.13.07-.83.04-1.33.28-3.37,1.57-4.46,3.15-8.32,3.93-.51.1-.84.05-1.48.25-3.23.98-6.72,2.76-10.14,3.83-1.25.39-3.05.51-4.13,1.06-.9.46-2.14,2.24-2.05,3.27l-3.46,1.24c.13-4.66,6.5-12.25,9.15-16.08l.74.25c-1.03,1.56-4.31,6.96-4.45,8.53-.39,4.34,4.05-.25,3.96-1.71-.04-.67-.74-1.1-.69-1.93.08-1.27,3.24-6.44,2.89-6.84-.09-.1-.43,0-.46-.03-.07-.08-.07-.58-.25-.74.61-1.02,1.76-3.41.24-4.08-1.72-.76-5.88.85-7.91-.13,1.19-2.17,2.45-4.39,4.45-5.93-.23.32-1.03,1.87-.99,2.1.42.59.79.38,1.33.09.74-.39,4.62-4.34,5.6-5.29.39-.38.8-1.2,1.24-1.61.05-.05.33-.01.48-.15.78-.72,2.26-1.7,2.75-2.44.35-.53.3-.61-.26-.87.5-.43,1.32-1.72.74-2.35-.92-1.02-4.15-.87-5.44-.87.36-.62,1.15-.89,1.73-1.23-.17,1.01,1.1.35,1.73.25,2.36-.39,7.2-2.38,9.53-3.46.33-.15.64-.35.98-.5l-.37-.5c1.77-.4,3.41-.69,5.19-.99.07-.01.18-.24.25-.25.16-.03.34.02.49,0Z" fill="#fec83f"/><path d="M35.66,118.2c-.72,2.24-3.74,4.09-5.71,5.3-3.01,1.85-6.27,3.33-9.63,4.35.06-.8-.91-.47-.99-1.48s1.15-2.8,2.05-3.27c1.08-.56,2.88-.67,4.13-1.06,3.42-1.08,6.91-2.85,10.14-3.83Z" fill="#e7a62b"/><path d="M46.79,113.75v.25c-1.29.21-3.37,2.89-4.45,3.84-1.8,1.58-3.67,3.11-5.57,4.57-.28-1.48,1.68-3.08.37-4.45,3.86-.78,4.95-2.36,8.32-3.93.5-.23,1.2-.21,1.33-.28Z" fill="#e7a62b"/><path d="M30.71,94.21c-.44.41-.85,1.23-1.24,1.61-.98.94-4.86,4.89-5.6,5.29-.54.28-.91.5-1.33-.09-.04-.22.76-1.78.99-2.1,1.17-1.64,4.04-3.61,5.69-4.95.36.9.73.25,1.36,0l.13.25Z" fill="#f8e4a2"/><path d="M42.58,82.08l.37.5c-.34.15-.65.34-.98.5-2.32,1.08-7.16,3.07-9.53,3.46l.25-1.24c2.72-1.3,4.76-1.96,7.67-2.72l.49-.25c.48-.12,1.19-.12,1.73-.25Z" fill="#f8e4a2"/><path d="M53.72,115.48c-.46,1.57-2.34,3.43-3.59,4.46-.22.18-.53.17-.62.24-.08-.77.26-1.46.25-2.23.92-.3,1.39-1.17,2.15-1.69.62-.42,1.43-.56,1.81-.79Z" fill="#e7a62b"/><path d="M46.79,113.75s-.08-.34.18-.49c1.46-.81,1.94-.18,2.27,1.13.21.83.51,2.82.52,3.56s-.33,1.45-.25,2.23c-.17.13-.31.36-.49.49l-.49-.25c.02-.65.18-1.5.25-2.23l.25-.25c.12-1.6-.01-4.32-2.23-3.96v-.25Z" fill="#f3bc3c"/><path d="M19.33,126.36c.08,1.01,1.05.68.99,1.48-.82.25-3.83,1.45-4.34.75-.17-.23-.12-.7-.11-1l3.46-1.24Z" fill="#f3bc3c"/><path d="M33.68,90.74c.56.26.61.34.26.87-.49.73-1.97,1.72-2.75,2.44-.15.14-.43.11-.48.15l-.13-.25c-.63.25-.99.9-1.36,0,1.35-1.09,3.28-2.21,4.45-3.22Z" fill="#f9d056"/><path d="M27,109.79c-.14.8-.82,1.35-1.24,1.98l-.74-.25c.51-.74,1.32-1.78,1.73-2.47.17.16.18.66.25.74Z" fill="#f9d056"/><path d="M32.69,85.3l-.25,1.24c-.63.1-1.9.76-1.73-.25.75-.45,1.23-.63,1.98-.99Z" fill="#f9d056"/><path d="M49.02,120.67s-.03.21-.12.25h-.37c0-.16,0-.33,0-.49l.49.25Z" fill="#e7a62b"/><path d="M40.85,82.33l-.49.25s.14-.16.49-.25Z" fill="#fec83f"/><path d="M47.78,81.09l.25-.25c-.07.01-.17.24-.25.25Z" fill="#e7a62b"/><path d="M48.77,118.2c.02-.19.25-.23.25-.25l-.25.25Z" fill="#e7a62b"/><path d="M7.95,105.09c.31,2.01-1.36,2.41-2.97,2.72-.44-1.02,2.41-3.28,2.97-2.72Z" fill="#fec83f"/><path d="M4.49,124.14c.21,1.4-1.06,1.85-2.22,1.73-.31-.26,1.53-2.22,2.22-1.73Z" fill="#f3bc3c"/><path d="M34.67,132.3c.32,1.16-.75,1.37-1.73,1.48-.38-.34,1.47-1.78,1.73-1.48Z" fill="#fec83f"/><path d="M115.26,21.79c13.63-1.54,24.93,10.66,20.9,24.12-4.76,15.94-26.71,17.39-34.5,2.94-5.99-11.12.94-25.63,13.59-27.06ZM116.05,24.2c-5.67.89-9.69,3.49-12.37,8.66-1.04,2-1.58,3.36-1.73,5.69-.26,3.82.27,6.41,2.23,9.65,10.22,16.91,36.14,5.51,29.19-13.36-.67-1.83-.79-2.14-1.98-3.71-.45-.59-.32-.91-1.24-1.48-.35-.91-1.47-1.76-2.25-2.33-2.8-2.04-5.89-3.22-9.38-3.36-.16,0-.33,0-.49,0-.25,0-.5-.01-.74,0s-.5-.03-.74,0l-.49.25Z" fill="#212c35"/><path d="M135.17,22.9c-1.38-1.49,2.46-3.38,3.05-1.18.35,1.32-2.12,2.18-3.05,1.18Z" fill="#33566e"/><path d="M144.19,28.2c1.94-.3,2.09,2.83.17,2.93-1.58.08-1.96-2.66-.17-2.93Z" fill="#33566e"/><path d="M149.94,34.84c0-.45.15-.64.25-.99.74-.13,1.13-1.6,1.8-.18.78,1.67-2.02,3.39-2.05,1.17Z" fill="#33566e"/><path d="M110.61,70.21c.53.53-.71,1.76-1.23,1.23s.71-1.76,1.23-1.23Z" fill="#e4d3bf"/><path d="M130.89,11.34c.15.91-.39,1.08-1.23.99-.15-.91.39-1.08,1.23-.99Z" fill="#6a98b1"/><path d="M110.36,67.24c-.16-.16,0-1.37.61-1.23.95.21-.05,1.8-.61,1.23Z" fill="#e4d3bf"/><path d="M51.91,47.5c2.16-.65,1.51,2.83-.67.81-.07-.32.4-.73.67-.81Z" fill="#b43426"/><path d="M148.95,14.06c.28.19.61,2.3-.75,1.37-.73-.49.08-1.82.75-1.37Z" fill="#b43426"/><path d="M100.96,102.61l-1.23.25c-.28-1.47,1.29-1.81,1.23-.25Z" fill="#b43426"/><path d="M53.72,70.46l2.47,3.35c.2.75,2.36,1.51,2.44,1.64.66,1.09-.96,1.25-1.69.95-.88-.37-2.85-3.19-3.16-4.15-.12-.36,0-.75-.06-1.05v-.25c-.01-.16,0-.33,0-.49Z" fill="#212c35"/><path d="M49.76,86.04c-.02,3.99,2.71,6.72,3.47,10.39,3.1-.2,6.57-.63,5.19,3.71-4.01,2.73-13.47,6.67-18.46,7.14-1.66.16-3.58.42-3.3-1.8.05-.4,1.53-3.66-.25-2.37-.96.18-.29-.92-.24-1.62.02-.37-.26-.75-.25-.85.03-.61,4.73-3.57,4.95-4.82.07-.38,0-.43-.37-.38-.51.08-2.4,1.15-2.6.99,2.33-3.8,6.1-7.21,9.91-9.5.66-.4,1.42-.58,1.96-.89Z" fill="#feeac2"/><path d="M53.72,83.82c-1.31.63-2.68,1.51-3.96,2.23-.54.3-1.3.49-1.96.89-3.82,2.29-7.59,5.7-9.91,9.5.19.16,2.09-.91,2.6-.99.37-.06.44,0,.37.38-.23,1.25-4.92,4.21-4.95,4.82l-.49.25c-.03-.16.04-.38,0-.49l-.25-.99c-.02-.24,0-.5,0-.74,1.47-.6,1.63-2.94,2.23-4.21.52-1.12,1.63-2.3,2.47-3.22,1.48-1.62,3.77-3.12,4.95-4.7,2.66-1.14,4.72-2.43,7.67-2.85.38-.05.99-.35,1.24.13Z" fill="#cd7b2b"/><path d="M72.27,91.48c1.14,1.29,1.93,2.95,3.71,3.71-.51.51-2.41.03-2.97-.25-.83-.41-1.17-1.7-1.98-1.98l-.25-2.72c.41.36,1.15.86,1.48,1.24Z" fill="#6a98b1"/><path d="M76.72,93.71c2.33,1.58,2.04,2.67-.74,1.48-1.78-.76-2.57-2.42-3.71-3.71.55-.11.84.1,1.27.33.81.42,2.44,1.39,3.18,1.89Z" fill="#212c35"/><path d="M53.47,104.59v1.24c-.68.16-1.75.72-2.23-.25.74-.29,1.46-.69,2.23-.99Z" fill="#f3bc3c"/><path d="M53.72,71.2c-.04-.21,0-.22,0-.25v.25Z" fill="#3e6882"/><path d="M27,109.79s.37-.07.46.03c.35.4-2.81,5.57-2.89,6.84-.05.83.64,1.26.69,1.93.1,1.47-4.34,6.05-3.96,1.71.14-1.57,3.43-6.97,4.45-8.53.41-.63,1.1-1.18,1.24-1.98Z" fill="#f8e4a2"/><path d="M37.64,90.99c.75,1.26-.08,1.86-.55,2.79-.24.48-.45.76.3.67-.59,1.27-.75,3.6-2.23,4.21-.04-2.2.38-4.02,1.27-6.03.35-.8.53-1.11,1.2-1.64Z" fill="#e7a62b"/><path d="M37.64,90.99c.53-.41.65-.71,1.6-.51.29.06-.13,1.03.63.76-.84.91-1.95,2.1-2.47,3.22-.75.09-.54-.19-.3-.67.47-.94,1.29-1.54.55-2.79Z" fill="#f3bc3c"/><path d="M35.41,100.39c-.16-.45-.2-.43-.25-.99l.25.99Z" fill="#e7a62b"/><path d="M104.18,48.19c.93.04.95.66,1.35,1,.23.19.58.19.63.24,5.66,5.08,11.44,7.86,19.04,4.08,6.75-3.36,8.17-9.01,8.17-15.95v-2.72c6.95,18.86-18.97,30.27-29.19,13.36Z" fill="#e7a62b"/><path d="M103.93,36.81l.74,1.48c-.37,3.06.69,7.14,2.47,9.65-.79,0-.99.84-.99,1.48-.05-.05-.4-.04-.63-.24-.4-.34-.42-.96-1.35-1-1.96-3.24-2.48-5.83-2.23-9.65.21-1.15,1.56-.79,1.98-1.73Z" fill="#fec83f"/><path d="M126.44,28.16c1.21.16,1.13,1.25,2.23,1.24-.18.87,2.03,3.55,2.72,2.97v-1.24c1.19,1.57,1.31,1.88,1.98,3.71v2.72l-1.98.25c-.77-3.79-3.23-7.48-6.68-9.4.56-.16,1.14-.32,1.73-.25Z" fill="#f3bc3c"/><path d="M117.29,23.95c.03.37.71.37.74,0,.16,0,.33,0,.49,0-.47,1.14-1.34.8-2.23,1.24-3.74.46-9.06,4.13-10.88,7.42l-1.73.25c2.68-5.17,6.7-7.77,12.37-8.66.42-.07.47-.24.49-.25.24-.03.5.01.74,0Z" fill="#feeac2"/><path d="M118.53,23.95c3.49.14,6.58,1.32,9.38,3.36.78.57,1.89,1.42,2.25,2.33-1-.63-.65-.26-1.48-.25-1.1.02-1.02-1.08-2.23-1.24-1.04-1.26-3.86-2.39-5.44-2.72-1.28-.27-3.42-.4-4.7-.25.88-.44,1.76-.09,2.23-1.24Z" fill="#f8e4a2"/><path d="M105.42,32.61c-.59,1.07-1,3.12-1.48,4.21-.42.94-1.77.58-1.98,1.73.16-2.33.69-3.69,1.73-5.69l1.73-.25Z" fill="#f8e4a2"/><path d="M130.15,29.64c.91.57.79.9,1.24,1.48v1.24c-.69.58-2.9-2.1-2.72-2.97.83-.01.48-.38,1.48.25Z" fill="#f9d056"/><path d="M118.03,23.95c-.03.37-.71.37-.74,0,.25-.01.5,0,.74,0Z" fill="#f8e4a2"/><path d="M116.55,23.95s-.07.18-.49.25l.49-.25Z" fill="#f8e4a2"/><path d="M133.37,37.56c0,6.94-1.42,12.6-8.17,15.95-7.61,3.78-13.38,1-19.04-4.08,0-.64.2-1.47.99-1.48,8.09,11.38,27.23,4.55,24.24-10.14l1.98-.25Z" fill="#f9d056"/><path d="M122.24,27.41c.4.11,2.12.79,2.47.99,3.45,1.92,5.91,5.61,6.68,9.4,2.99,14.7-16.15,21.52-24.24,10.14-1.79-2.51-2.84-6.59-2.47-9.65,1.03-8.47,9.67-13.09,17.56-10.88ZM123.14,30.48c-11.62-5.86-22.42,9.72-11.41,18.45,5.37,4.25,14.25,2.17,16.73-4.28.3-.78.94-3.7.97-4.49.13-3.74-3.1-8.06-6.3-9.68Z" fill="#212c35"/><path d="M116.3,25.19c1.28-.16,3.42-.02,4.7.25.41.66.53,1.56,1.24,1.98-7.9-2.21-16.54,2.41-17.56,10.88l-.74-1.48c.48-1.08.89-3.14,1.48-4.21,1.83-3.29,7.15-6.96,10.88-7.42Z" fill="#f3bc3c"/><path d="M126.44,28.16c-.59-.08-1.17.09-1.73.25-.36-.2-2.07-.88-2.47-.99-.7-.42-.83-1.31-1.24-1.98,1.59.33,4.41,1.46,5.44,2.72Z" fill="#fec83f"/><path d="M123.14,30.48c3.2,1.61,6.43,5.94,6.3,9.68-.03.79-.67,3.72-.97,4.49-2.49,6.45-11.37,8.53-16.73,4.28-11.02-8.72-.21-24.31,11.41-18.45ZM116.24,32.18c-2.94.37-5.15,1.42-5.56,4.58-.7,5.26,4.76,9.69,9.71,9.47,7.28-.32,6.35-10.34.99-13.13-1.63-.85-3.3-1.15-5.14-.92Z" fill="#447590"/><path d="M116.24,32.18c1.84-.23,3.51.07,5.14.92,5.36,2.79,6.29,12.81-.99,13.13-4.96.22-10.41-4.21-9.71-9.47.42-3.15,2.63-4.21,5.56-4.58ZM113.75,33.64c-1.42.44-2.22,4.4-.05,4.39,2.7-.01,3.41-5.43.05-4.39Z" fill="#c4dde4"/><path d="M113.75,33.64c3.36-1.04,2.65,4.38-.05,4.39-2.17,0-1.37-3.95.05-4.39Z" fill="#fff7f1"/></g></svg>