<?xml version="1.0" encoding="UTF-8"?><svg id="Layer_2" xmlns="http://www.w3.org/2000/svg" viewBox="0 0 452.18 390.83"><defs><style>.cls-1{fill:#212c34;}.cls-2{fill:#fcf5eb;}</style></defs><g id="Layer_1-2"><path class="cls-1" d="M428.54,321.03L30.9,390.44C14.68,393.27-.1,380.45,0,363.65L1.65,96.24c.08-13.09,9.35-24.24,21.99-26.44L421.28.39c16.22-2.83,31,9.99,30.9,26.78l-1.65,267.41c-.08,13.09-9.35,24.24-21.99,26.44Z"/><path class="cls-2" d="M68.04,244.98c.57,1.04,1.3,1.84,2.18,2.41.88.57,1.88.92,3,1.07,1.12.15,2.29.11,3.49-.1.86-.15,1.76-.43,2.7-.84.94-.41,1.79-.94,2.55-1.59s1.38-1.45,1.88-2.4c.49-.95.72-2.07.69-3.38-.06-2.19-1.32-3.63-3.78-4.29-2.46-.67-5.88-1.16-10.26-1.49-1.79-.16-3.53-.42-5.24-.78-1.71-.35-3.23-.94-4.58-1.77-1.35-.83-2.44-1.98-3.28-3.45-.85-1.47-1.3-3.37-1.36-5.7-.09-3.43.39-6.34,1.45-8.73,1.06-2.39,2.48-4.38,4.28-5.98,1.8-1.59,3.83-2.85,6.11-3.77,2.28-.92,4.62-1.59,7.02-2.02s4.74-.56,7.02-.42c2.27.15,4.32.72,6.13,1.71,1.81.99,3.33,2.46,4.56,4.41,1.02,1.62,1.72,3.68,2.12,6.18.13.85-.41,1.73-1.15,1.86l-9.19,1.63c-.59.1-1.09-.33-1.21-1-.39-2.1-1.27-3.45-2.65-4.05-1.63-.71-3.53-.87-5.71-.49-.69.12-1.43.31-2.23.55-.8.24-1.52.6-2.17,1.06-.65.46-1.19,1.06-1.63,1.79-.44.73-.65,1.65-.62,2.75.03,1.3.46,2.3,1.29,2.98.82.68,1.89,1.17,3.19,1.45s2.79.49,4.46.61c1.67.12,3.37.27,5.1.44,1.79.17,3.53.44,5.24.83,1.71.39,3.23,1.03,4.58,1.93,1.35.9,2.44,2.12,3.29,3.66.85,1.54,1.3,3.54,1.37,6.01.09,3.5-.42,6.53-1.53,9.11-1.11,2.57-2.59,4.75-4.44,6.52-1.85,1.77-3.98,3.17-6.4,4.18-2.42,1.01-4.89,1.74-7.4,2.19s-5.1.59-7.58.41c-2.48-.18-4.69-.82-6.65-1.92-1.96-1.1-3.58-2.73-4.87-4.87-1.1-1.82-1.8-4.14-2.12-6.96-.09-.84.44-1.68,1.15-1.8l9.18-1.62c.61-.11,1.12.36,1.22,1.07.14,1.02.41,1.91.82,2.65Z"/><path class="cls-2" d="M100.5,189.37l-.24-9.17c-.02-.79.5-1.53,1.16-1.65l9.8-1.73c.66-.12,1.22.43,1.24,1.22l.24,9.17c.02.79-.5,1.53-1.16,1.65l-9.8,1.73c-.66.12-1.22-.43-1.24-1.22ZM112.99,198.31l1.34,50.32c.02.79-.5,1.53-1.16,1.65l-9.8,1.73c-.66.12-1.22-.43-1.24-1.22l-1.34-50.32c-.02-.79.5-1.53,1.16-1.65l9.8-1.73c.66-.12,1.22.43,1.24,1.22Z"/><path class="cls-2" d="M152.91,236.42c-1.35,3.13-3.17,5.54-5.46,7.22s-4.89,2.78-7.8,3.29c-3.32.59-6.26.33-8.82-.76-2.56-1.1-4.69-2.82-6.39-5.17-1.7-2.35-3.01-5.17-3.93-8.45-.92-3.28-1.43-6.78-1.53-10.48-.09-3.57.23-7.09.97-10.56.74-3.47,1.89-6.62,3.46-9.45,1.56-2.83,3.56-5.23,5.98-7.21,2.42-1.98,5.26-3.26,8.52-3.83,2.63-.47,5.15-.24,7.57.68,2.41.92,4.34,2.56,5.78,4.92l.17-.03-.67-25.31c-.02-.79.5-1.53,1.16-1.65l9.8-1.73c.66-.12,1.22.43,1.24,1.22l1.88,70.58c.02.79-.5,1.53-1.16,1.65l-9.19,1.63c-.66.12-1.22-.43-1.24-1.22l-.14-5.35-.17.03ZM151.69,210.23c-.4-1.96-1.03-3.64-1.9-5.04-.87-1.4-1.98-2.46-3.32-3.19-1.34-.73-3.01-.91-5.02-.56s-3.68,1.13-5.03,2.34c-1.35,1.2-2.42,2.67-3.2,4.39-.79,1.73-1.34,3.63-1.66,5.72-.32,2.09-.45,4.23-.39,6.43.05,2.06.31,4.08.77,6.07.45,1.99,1.15,3.71,2.08,5.16.93,1.46,2.08,2.56,3.45,3.32,1.37.76,3,.97,4.89.63,2-.35,3.66-1.13,4.98-2.33,1.32-1.2,2.36-2.67,3.12-4.43.76-1.75,1.28-3.69,1.57-5.81.29-2.12.4-4.27.35-6.47s-.29-4.27-.68-6.24Z"/><path class="cls-2" d="M184.34,224.87c1.89,1.8,4.55,2.4,7.98,1.79,2.46-.44,4.56-1.55,6.29-3.34,1.44-1.48,2.41-2.95,2.9-4.38.18-.54.59-.94,1.06-1.02l8.22-1.45c.84-.15,1.45.76,1.17,1.76-1.57,5.67-3.9,10.01-7.01,13.02-3.48,3.37-7.73,5.5-12.77,6.39-3.49.62-6.66.51-9.5-.33-2.84-.84-5.27-2.32-7.28-4.45-2.01-2.12-3.59-4.81-4.74-8.05-1.15-3.24-1.78-6.92-1.89-11.04s.34-7.78,1.34-11.4c1-3.62,2.46-6.86,4.4-9.72,1.94-2.86,4.27-5.25,7.01-7.18,2.74-1.93,5.79-3.2,9.17-3.79,3.78-.67,7.09-.38,9.94.88,2.85,1.25,5.22,3.2,7.1,5.82,1.88,2.63,3.27,5.76,4.17,9.39.8,3.23,1.2,6.66,1.19,10.3,0,.77-.52,1.47-1.16,1.58l-29.59,5.24c-.71.13-1.25.97-1.15,1.8.43,3.86,1.47,6.59,3.14,8.18ZM197.37,194.45c-1.51-1.66-3.75-2.23-6.73-1.7-1.95.34-3.55,1.03-4.82,2.04-1.27,1.02-2.27,2.18-3.01,3.48-.74,1.3-1.25,2.64-1.53,3.99-.14.66-.24,1.28-.32,1.86-.12.91.47,1.63,1.23,1.49l16.97-3c.78-.14,1.33-1.12,1.12-1.99-.68-2.73-1.64-4.78-2.9-6.17Z"/><path class="cls-2" d="M257.63,224.72c-.54.1-1.03-.26-1.19-.86l-8.58-33.27-.17.03-6.4,35.91c-.12.66-.58,1.19-1.13,1.29l-10.81,1.91c-.52.09-.99-.23-1.17-.8l-14.66-47.96c-.27-.88.28-1.93,1.09-2.07l10.32-1.83c.54-.1,1.03.26,1.18.86l8.85,33.65.17-.03,6.23-36.28c.11-.67.58-1.2,1.13-1.3l9.97-1.76c.55-.1,1.04.27,1.19.88l8.26,33.62.17-.03,6.99-36.35c.13-.65.59-1.17,1.13-1.26l9.98-1.77c.81-.14,1.41.7,1.19,1.67l-11.9,52.66c-.14.63-.59,1.11-1.12,1.21l-10.73,1.9Z"/><path class="cls-2" d="M285.81,182.73c-.72.13-1.31-.54-1.24-1.42.22-2.76.83-5.19,1.84-7.27,1.2-2.49,2.75-4.59,4.66-6.3,1.91-1.71,4.07-3.08,6.49-4.09,2.42-1.01,4.86-1.74,7.32-2.17,2.23-.39,4.5-.61,6.8-.63,2.3-.03,4.41.34,6.33,1.1,1.92.76,3.5,2.02,4.76,3.76,1.25,1.74,1.92,4.22,2.01,7.45l.74,27.67c.06,2.4.24,4.68.53,6.83.15,1.16.35,2.15.6,2.98.26.89-.28,1.93-1.09,2.07l-9.65,1.71c-.54.1-1.03-.26-1.19-.86-.12-.46-.23-.93-.33-1.4,0,0,0-.02,0-.02-.2-1.02-1.23-1.32-1.92-.53-1.53,1.77-3.26,3.19-5.18,4.24-2.61,1.43-5.28,2.38-8.03,2.87-2.12.37-4.1.42-5.95.12-1.85-.29-3.48-.97-4.88-2.03-1.41-1.06-2.53-2.51-3.35-4.37-.83-1.85-1.28-4.15-1.35-6.89-.08-3.02.3-5.58,1.13-7.69.83-2.11,1.94-3.87,3.31-5.29,1.37-1.41,2.95-2.57,4.74-3.47,1.79-.9,3.59-1.69,5.41-2.35,1.82-.67,3.62-1.26,5.39-1.78,1.77-.52,3.34-1.11,4.7-1.76,1.36-.65,2.43-1.45,3.21-2.38.78-.93,1.12-2.14,1.02-3.64-.04-1.58-.29-2.79-.74-3.64s-1.05-1.47-1.77-1.86c-.73-.39-1.57-.58-2.52-.59-.95,0-1.97.09-3.05.28-2.4.43-4.28,1.38-5.62,2.85-1.15,1.27-1.86,3.06-2.14,5.39-.08.7-.56,1.29-1.14,1.39l-9.83,1.74ZM313.01,191.27c-.03-1-.88-1.56-1.65-1.06-.1.07-.21.13-.32.19-.76.45-1.59.85-2.47,1.21-.88.36-1.81.7-2.78,1.01-.97.31-1.94.65-2.91,1.03-.91.37-1.81.8-2.68,1.3-.88.5-1.64,1.1-2.28,1.8-.64.7-1.15,1.53-1.53,2.49-.38.96-.55,2.13-.51,3.5s.26,2.37.69,3.19c.42.82.99,1.43,1.69,1.82.7.39,1.51.61,2.43.65.92.04,1.87-.02,2.84-.19,2.4-.43,4.25-1.23,5.54-2.43,1.29-1.19,2.23-2.51,2.83-3.96.59-1.45.94-2.87,1.05-4.27.11-1.4.15-2.51.13-3.33l-.08-2.96Z"/><path class="cls-2" d="M343.48,137.17l1.88,70.58c.02.79-.5,1.53-1.16,1.65l-9.8,1.73c-.66.12-1.22-.43-1.24-1.22l-1.88-70.58c-.02-.79.5-1.53,1.16-1.65l9.8-1.73c.66-.12,1.22.43,1.24,1.22Z"/><path class="cls-2" d="M364,133.54l.92,34.4c.03,1.29,1.36,1.69,2.09.63l12.52-18.42c.22-.32.53-.54.85-.59l10.97-1.94c1.07-.19,1.65,1.28.9,2.32l-13.49,18.71c-.4.55-.45,1.33-.11,1.85l17.66,27.44c.55.86.02,2.24-.94,2.41l-11.86,2.1c-.42.07-.81-.12-1.04-.5l-11.63-19.6c-.42-.71-1.33-.69-1.86.05l-3.18,4.37c-.23.31-.35.71-.34,1.1l.43,16.27c.02.79-.5,1.53-1.16,1.65l-9.8,1.73c-.66.12-1.22-.43-1.24-1.22l-1.88-70.58c-.02-.79.5-1.53,1.16-1.65l9.8-1.73c.66-.12,1.22.43,1.24,1.22Z"/></g></svg>