<?xml version="1.0" encoding="UTF-8"?>
<svg id="Layer_2" data-name="Layer 2" xmlns="http://www.w3.org/2000/svg" viewBox="0 0 65.76 170.53">
  <defs>
    <style>
      .cls-1 {
        fill: #e5bf55;
      }

      .cls-2 {
        fill: #cd5037;
      }

      .cls-3 {
        fill: #212c34;
      }
    </style>
  </defs>
  <g id="Layer_2-2" data-name="Layer 2">
    <g id="Layer_1-2" data-name="Layer 1-2">
      <path class="cls-2" d="M62.33,46.69L4.49,56.79C2.14,57.2,0,55.33,0,52.89L.24,14c.01-1.9,1.36-3.53,3.2-3.85L61.27.06c2.36-.41,4.51,1.45,4.49,3.9l-.24,38.89c-.01,1.9-1.36,3.53-3.2,3.85h0Z"/>
      <path class="cls-1" d="M62.33,103.54l-57.83,10.09C2.14,114.04,0,112.18,0,109.73l.24-38.89c.01-1.9,1.36-3.53,3.2-3.85l57.83-10.09c2.36-.41,4.51,1.45,4.49,3.9l-.24,38.89c-.01,1.9-1.36,3.53-3.2,3.85h0Z"/>
      <path class="cls-3" d="M62.33,160.38l-57.83,10.09C2.14,170.89,0,169.02,0,166.58l.24-38.89c.01-1.9,1.36-3.53,3.2-3.85l57.83-10.09c2.36-.41,4.51,1.45,4.49,3.9l-.24,38.89c-.01,1.9-1.36,3.53-3.2,3.85h0Z"/>
    </g>
  </g>
</svg>